<svg width="26" height="45" viewBox="0 0 26 45" fill="none" xmlns="http://www.w3.org/2000/svg">
<g clip-path="url(#clip0_2_48)">
<path d="M9.32213 19.6784C6.63635 22.5644 3.55879 28.0568 12.3499 36.584C12.4503 36.6346 12.4622 36.6204 12.3631 36.3727C12.0222 35.5215 11.0395 32.9895 10.9629 30.7625C10.864 27.8877 12.1793 25.8644 12.8113 25.158C14.5225 23.2453 19.9143 18.0565 22.1865 15.805C24.4587 13.5535 24.5301 9.18701 24.328 6.72685C24.1663 4.75875 23.9515 5.12731 23.7242 5.35051C20.6356 8.47123 12.3099 16.7256 9.32213 19.6784Z" fill="#5E4BFA"/>
<path d="M14.0282 37.8476C13.9067 37.7009 12.293 34.1726 12.2669 31.4676C12.1691 29.829 12.4047 28.7611 12.5614 28.0218C12.6185 27.8956 12.6907 27.871 12.7587 27.9377C14.4929 29.6408 18.7778 34.4469 19.0962 34.7715C19.4955 35.1783 19.9265 36.0649 19.9265 36.0649C20.6225 37.3609 21.4511 39.7426 21.2666 42.3981C21.1286 44.3837 21.0054 44.5514 20.8363 44.4875C20.7394 44.4509 19.6418 43.3867 18.6338 42.4095C17.8834 41.6821 17.1828 41.0029 16.9817 40.8315C16.5105 40.4301 15.2043 39.1533 14.2101 38.0644C14.1492 37.9977 14.1498 37.9944 14.0282 37.8476Z" fill="#5E4BFA"/>
<path d="M3.52733 14.5888C0.84154 17.4748 -2.31372 22.4715 6.4774 30.9987C6.57779 31.0494 6.58972 31.0351 6.49056 30.7874C6.14969 29.9363 5.24471 27.9 5.16812 25.673C5.06925 22.7981 6.38452 20.7749 7.01654 20.0684C8.72765 18.1557 14.1196 12.9669 16.3917 10.7154C18.6638 8.46385 18.7353 4.09738 18.5331 1.63725C18.3715 -0.330846 18.1567 0.0377104 17.9294 0.260907C14.8408 3.38163 6.51517 11.6359 3.52733 14.5888Z" fill="#5E4BFA"/>
</g>
<defs>
<clipPath id="clip0_2_48">
<rect width="25.52" height="44.9872" fill="white" transform="translate(0 0.00646973)"/>
</clipPath>
</defs>
</svg>
