<svg width="18" height="14" viewBox="0 0 18 14" fill="none" xmlns="http://www.w3.org/2000/svg">
<path d="M9.25 4.6875C10.5703 4.6875 11.6875 5.80469 11.6875 7.125C11.6875 8.4707 10.5703 9.5625 9.25 9.5625C7.9043 9.5625 6.8125 8.4707 6.8125 7.125C6.8125 5.80469 7.9043 4.6875 9.25 4.6875ZM15.4961 6.74414C15.8262 6.89648 15.8262 7.37891 15.4961 7.53125L13.084 8.72461L13.9473 11.2891C14.0488 11.6191 13.7188 11.9492 13.3887 11.8477L10.8242 10.9844L9.63086 13.3965C9.47852 13.7266 8.99609 13.7266 8.84375 13.3965L7.65039 10.9844L5.08594 11.8477C4.75586 11.9492 4.42578 11.6191 4.52734 11.2891L5.39062 8.72461L2.97852 7.53125C2.64844 7.37891 2.64844 6.89648 2.97852 6.74414L5.39062 5.55078L4.52734 2.98633C4.42578 2.65625 4.75586 2.32617 5.08594 2.42773L7.65039 3.29102L8.84375 0.878906C8.99609 0.548828 9.47852 0.548828 9.63086 0.878906L10.8242 3.29102L13.3887 2.42773C13.7188 2.32617 14.0488 2.65625 13.9473 2.98633L13.084 5.55078L15.4961 6.74414ZM11.5352 9.43555C12.8047 8.16602 12.8047 6.10938 11.5352 4.83984C10.2656 3.57031 8.20898 3.57031 6.93945 4.83984C5.66992 6.10938 5.66992 8.16602 6.93945 9.43555C8.20898 10.7051 10.2656 10.7051 11.5352 9.43555Z" fill="#8B8F98"/>
</svg>
