<svg width="75" height="20" viewBox="0 0 75 20" fill="none" xmlns="http://www.w3.org/2000/svg">
<g clip-path="url(#clip0_2_77)">
<path d="M3.75992 8.35113C2.67761 9.49415 1.43741 11.6694 4.98007 15.0466C5.02052 15.0666 5.02534 15.0609 4.98536 14.9629C4.84801 14.6258 4.452 13.623 4.42113 12.741C4.38129 11.6024 4.91132 10.8011 5.16602 10.5213C5.85555 9.76386 8.0284 7.70881 8.94405 6.81708C9.85967 5.92537 9.88843 4.19604 9.807 3.22172C9.7418 2.44226 9.65525 2.58822 9.56367 2.67662C8.31904 3.91257 4.96396 7.18169 3.75992 8.35113Z" fill="#62676D"/>
<path d="M5.65646 15.5473C5.6075 15.4893 4.95718 14.0918 4.94667 13.0205C4.90723 12.3716 5.00219 11.9487 5.06537 11.6559C5.08837 11.6059 5.11747 11.5962 5.14484 11.6225C5.84371 12.2971 7.57043 14.2005 7.69876 14.3291C7.85967 14.4902 8.03333 14.8413 8.03333 14.8413C8.31381 15.3546 8.64775 16.2979 8.57338 17.3495C8.51777 18.1359 8.46813 18.2024 8.4 18.177C8.36092 18.1626 7.91858 17.7411 7.51241 17.354C7.21003 17.066 6.9277 16.797 6.84666 16.7291C6.65678 16.5701 6.1304 16.0644 5.72974 15.6333C5.70523 15.6068 5.70545 15.6055 5.65646 15.5473Z" fill="#62676D"/>
<path d="M1.42476 6.33587C0.342439 7.47889 -0.929072 9.45781 2.61359 12.835C2.65404 12.855 2.65885 12.8494 2.61888 12.7513C2.48152 12.4142 2.11683 11.6077 2.08597 10.7257C2.04613 9.58715 2.57616 8.78586 2.83085 8.50608C3.52038 7.74857 5.69322 5.69355 6.60885 4.80182C7.52449 3.91012 7.55326 2.18079 7.47182 1.20646C7.40669 0.426996 7.32012 0.572962 7.22852 0.661359C5.98386 1.89731 2.6288 5.16643 1.42476 6.33587Z" fill="#62676D"/>
<path d="M18.5191 15.5554V9.09346H17.4127V7.66438H18.5191V6.54597C18.5191 5.7486 18.7457 5.13761 19.1988 4.71304C19.6518 4.28844 20.2999 4.07617 21.1428 4.07617C21.4062 4.07617 21.6328 4.08134 21.8224 4.0917C22.0121 4.10205 22.1754 4.12276 22.3124 4.15384V5.66057C22.1965 5.63987 22.0701 5.62949 21.9331 5.62949C21.8066 5.61914 21.675 5.61396 21.538 5.61396C21.2008 5.61396 20.9479 5.70198 20.7793 5.87805C20.6212 6.04374 20.5422 6.29744 20.5422 6.63917V7.66438H22.1702V9.09346H20.5422V15.5554H18.5191ZM30.4975 15.5554H28.5534C28.5219 15.3482 28.4957 15.1412 28.4743 14.934C28.4533 14.727 28.4427 14.5198 28.4427 14.3127C28.253 14.758 27.9212 15.1049 27.4471 15.3535C26.9834 15.602 26.425 15.7262 25.7717 15.7262C24.9604 15.7262 24.3071 15.5191 23.8118 15.1049C23.3166 14.6907 23.069 14.1366 23.069 13.4428C23.069 12.749 23.3113 12.2001 23.7961 11.7963C24.2807 11.3924 25.0025 11.1335 25.9613 11.0196L28.3637 10.7556V10.3827C28.3637 9.92712 28.232 9.57501 27.9687 9.32647C27.7052 9.07793 27.3311 8.95371 26.8464 8.95371C26.4145 8.95371 26.0668 9.06241 25.8033 9.27989C25.5399 9.49737 25.3923 9.79249 25.3608 10.1652H23.4167C23.501 9.32647 23.854 8.66888 24.4757 8.19252C25.0973 7.71616 25.9087 7.47799 26.9097 7.47799C28.0266 7.47799 28.8749 7.73687 29.4542 8.25466C30.0445 8.77246 30.3395 9.53354 30.3395 10.5381V13.5826C30.3395 14.0072 30.3498 14.3748 30.3712 14.6855C30.4028 14.9858 30.4449 15.2757 30.4975 15.5554ZM25.0762 13.3341C25.0762 13.6552 25.1869 13.9037 25.4081 14.0797C25.6294 14.2557 25.935 14.3438 26.3249 14.3438C26.915 14.3438 27.3996 14.1781 27.779 13.8467C28.1689 13.505 28.3637 13.0545 28.3637 12.4953V12.0138L26.5778 12.2156C26.0088 12.2882 25.6136 12.4125 25.3923 12.5885C25.1817 12.7542 25.0762 13.0027 25.0762 13.3341ZM35.8431 15.7417C34.7369 15.7417 33.8516 15.5191 33.1879 15.0739C32.5347 14.6182 32.1657 13.9813 32.0814 13.1632H34.0099C34.0519 13.5361 34.2362 13.8312 34.5629 14.0487C34.9002 14.2557 35.3164 14.3593 35.8115 14.3593C36.2647 14.3593 36.6281 14.2713 36.902 14.0952C37.1867 13.9192 37.329 13.681 37.329 13.3807C37.329 13.1322 37.234 12.9457 37.0443 12.8215C36.8653 12.6869 36.549 12.5782 36.0961 12.4953L34.6735 12.2468C33.8939 12.1122 33.3143 11.8584 32.935 11.4857C32.5557 11.1128 32.366 10.6157 32.366 9.99444C32.366 9.25915 32.6716 8.65853 33.2826 8.19252C33.8939 7.71616 34.6735 7.47799 35.6218 7.47799C36.6441 7.47799 37.45 7.69029 38.0403 8.11485C38.6408 8.52907 38.9831 9.12452 39.0675 9.90118H37.2183C37.176 9.59053 37.0127 9.342 36.7283 9.15557C36.4437 8.96924 36.0804 8.87598 35.6377 8.87598C35.2162 8.87598 34.8739 8.95883 34.6105 9.12452C34.3576 9.29021 34.2309 9.5129 34.2309 9.79249C34.2309 10.041 34.3206 10.2326 34.4999 10.3672C34.6789 10.4914 35.0002 10.595 35.4638 10.6778L37.0286 10.9419C37.7556 11.0662 38.3035 11.3251 38.6722 11.7186C39.0412 12.1017 39.2255 12.6092 39.2255 13.2409C39.2255 13.9761 38.9042 14.5768 38.2613 15.0428C37.6293 15.5087 36.8231 15.7417 35.8431 15.7417ZM44.3806 14.0797C44.5596 14.0797 44.7336 14.0693 44.9022 14.0487C45.0706 14.0175 45.2499 13.9761 45.4395 13.9243V15.4466C45.1656 15.5295 44.9022 15.5865 44.6493 15.6175C44.3963 15.6589 44.1277 15.6796 43.8431 15.6796C42.9897 15.6796 42.3575 15.4932 41.9465 15.1204C41.5461 14.7477 41.3459 14.1729 41.3459 13.3962V9.09346H40.2396V7.66438H41.3459V5.69163H43.353V7.66438H45.2655V9.09346H43.3374V13.0856C43.3374 13.4273 43.4164 13.681 43.5744 13.8467C43.743 14.002 44.0117 14.0797 44.3806 14.0797ZM50.7 17.1087C51.3746 17.1087 51.8856 16.9327 52.2332 16.5806C52.5808 16.2285 52.7548 15.7107 52.7548 15.0273V13.9088C52.5335 14.3438 52.1962 14.6959 51.7432 14.9651C51.2902 15.224 50.7793 15.3535 50.2101 15.3535C49.1458 15.3535 48.2871 14.991 47.6339 14.2661C46.9913 13.5412 46.6697 12.5885 46.6697 11.4079C46.6697 10.2378 46.9963 9.29021 47.6495 8.56533C48.3029 7.84044 49.1565 7.47799 50.2101 7.47799C50.7793 7.47799 51.2956 7.61262 51.7592 7.88186C52.2228 8.15112 52.5652 8.50837 52.7865 8.95371V7.66438H54.7779V14.7787C54.7779 15.98 54.4196 16.9016 53.7031 17.5437C52.9972 18.1857 51.9962 18.5068 50.7 18.5068C49.6147 18.5068 48.7351 18.2944 48.0605 17.8699C47.3968 17.4453 46.9913 16.8395 46.8436 16.0525H48.8508C48.9561 16.4046 49.1617 16.6686 49.4674 16.8447C49.7727 17.0207 50.1837 17.1087 50.7 17.1087ZM50.7476 13.8933C51.3693 13.8933 51.8696 13.681 52.2492 13.2565C52.6389 12.8215 52.8339 12.2571 52.8339 11.5633V11.2371C52.8339 10.5432 52.6389 9.98403 52.2492 9.55948C51.8696 9.13484 51.3693 8.92257 50.7476 8.92257C50.1153 8.92257 49.6147 9.14525 49.2461 9.59054C48.8771 10.0358 48.6928 10.6416 48.6928 11.4079C48.6928 12.1743 48.8771 12.78 49.2461 13.2253C49.6147 13.6707 50.1153 13.8933 50.7476 13.8933ZM62.5187 13.1011H64.384C64.2153 13.9192 63.8043 14.5664 63.1511 15.0428C62.5084 15.5087 61.7128 15.7417 60.7645 15.7417C59.5526 15.7417 58.5728 15.369 57.8248 14.6234C57.0765 13.8674 56.7025 12.8681 56.7025 11.6254C56.7025 10.3827 57.0765 9.38338 57.8248 8.62747C58.5728 7.86115 59.537 7.47799 60.717 7.47799C61.8551 7.47799 62.7561 7.84562 63.4197 8.58086C64.094 9.31606 64.4313 10.274 64.4313 11.4546V12.0914H58.6624C58.7254 12.7956 58.9364 13.3393 59.2947 13.7225C59.6527 14.0952 60.1426 14.2817 60.7645 14.2817C61.2069 14.2817 61.5759 14.1833 61.8708 13.9865C62.1658 13.7897 62.3818 13.4946 62.5187 13.1011ZM60.717 8.95371C60.1797 8.95371 59.737 9.1142 59.3893 9.43517C59.052 9.7459 58.831 10.2015 58.7254 10.8022H62.5031C62.5031 10.2533 62.3398 9.80801 62.0131 9.46622C61.6968 9.12452 61.2649 8.95371 60.717 8.95371ZM66.3469 7.66438H68.3384V9.00029C68.5384 8.53428 68.86 8.16664 69.3024 7.89738C69.7556 7.61779 70.2773 7.47799 70.8672 7.47799C71.7838 7.47799 72.5004 7.74722 73.0167 8.28572C73.5436 8.81386 73.807 9.54907 73.807 10.4914V15.5554H71.7838V10.9574C71.7838 10.3257 71.6468 9.84939 71.3729 9.52842C71.0988 9.20736 70.6986 9.04688 70.1716 9.04688C69.6027 9.04688 69.1603 9.23842 68.844 9.62159C68.5281 10.0048 68.3701 10.5536 68.3701 11.2682V15.5554H66.3469V7.66438Z" fill="#62676D"/>
</g>
<defs>
<clipPath id="clip0_2_77">
<rect width="74.9932" height="19.41" fill="white" transform="translate(0.00341797)"/>
</clipPath>
</defs>
</svg>
